# xmcd
# Copyright (C) 1995-1998 Ti Kan
#
# Track frame offsets:
#       150
#       16350
#       121325
#       222625
#
# Disc length: 4378 seconds
#
# Revision: 0
# Processed by: cddbd v1.5.2PL0 Copyright (c) Steve Scherf et al.
# Submitted via: CD-Import v1.0
#
DISCID=35111804
DTITLE=Herr Der Ringe - 
DYEAR=1900
DGENRE=
TTITLE0=Anmodi Hdr6
TTITLE1=Hdr6.1
TTITLE2=Hdr6.2
TTITLE3=Hdr6.3
EXTD=
EXTT0=
EXTT1=
EXTT2=
EXTT3=
PLAYORDER=
